<?xml version='1.0' encoding='utf-8'?>
<!DOCTYPE svg PUBLIC '-//W3C//DTD SVG 1.1//EN' 'http://www.w3.org/Graphics/SVG/1.1/DTD/svg11.dtd'>
<svg version="1.1" xmlns="http://www.w3.org/2000/svg" viewBox="0 0 512 512" xmlns:xlink="http://www.w3.org/1999/xlink" enable-background="new 0 0 512 512">
  <g>
    <path d="m501,245.6h-59.7c-5.3-93.9-81-169.6-174.9-174.9v-59.7h-20.9v59.7c-93.8,5.3-169.5,81-174.8,174.9h-59.7v20.9h59.7c5.3,93.8 81,169.5 174.9,174.8v59.7h20.9v-59.7c93.9-5.3 169.6-80.9 174.8-174.8h59.7v-20.9zm-80.6,0h-48.1c-4.9-56.3-49.6-100.9-105.9-105.9v-48.1c82.5,5.2 148.8,71.5 154,154zm-69.1,20.8c-4.9,44.7-40.9,80-84.9,84.9v-31.7h-20.9v31.8c-44.8-4.8-80.1-40.1-84.9-84.9h31.8v-20.9h-31.7c4.9-44.7 40.9-80 84.9-84.9v31.7h20.9v-31.7c44,4.9 80,40.2 84.9,84.9h-31.7v20.9h31.6zm-105.7-174.9v48.1c-56.3,4.9-100.9,49.6-105.9,105.9h-48.1c5.2-82.5 71.5-148.8 154-154zm-154,174.8h48.1c4.9,56.3 49.6,100.9 105.9,105.9v48.1c-82.5-5.2-148.8-71.5-154-154zm174.8,154v-48.1c56.3-4.9 100.9-49.6 105.9-105.9h48.1c-5.2,82.5-71.5,148.8-154,154z"/>
  </g>
</svg>
