<svg xmlns="http://www.w3.org/2000/svg" viewBox="0 0 47.5 47.5">
	<defs>
	  <clipPath id="a">
		<path d="M0 38h38V0H0v38z"></path>
	  </clipPath>
	</defs>
	<g clipPath="url(#a)" transform="matrix(1.25 0 0 -1.25 0 47.5)">
	  <path
		fill="#ffd983"
		d="M0 0l-5.844 5.844a2.582 2.582 0 01-3.812 3.479 2.585 2.585 0 01-.715-2.282 2.585 2.585 0 01-2.282-.716 2.59 2.59 0 010-3.662 2.58 2.58 0 013.479-.149L-3.33-3.33 0 0z"
		transform="translate(15.017 26.632)"
	  ></path>
	  <path
		fill="#c1694f"
		d="M0 0c1.665 1.665 5.874 8.81.046 14.636-4.059 4.058-7.328 3.826-13.416 5.335-2.497.832-5.752 3.832-6.584 4.665-.833-.833-.542-3.874-.542-3.874s-3.626-.294-4.458-1.126c.832-.833 4.699-4.49 5.375-6.207 1.821-5.775 1.613-8.711 5.671-12.77C-7.248-6-1.664-1.664 0 0"
		transform="translate(33.954 4.364)"
	  ></path>
	</g>
  </svg>